<?xml version="1.0" standalone="no"?>
<!DOCTYPE svg PUBLIC "-//W3C//DTD SVG 20010904//EN"
 "http://www.w3.org/TR/2001/REC-SVG-20010904/DTD/svg10.dtd">
<svg version="1.0" xmlns="http://www.w3.org/2000/svg"
 width="1280.000000pt" height="640.000000pt" viewBox="0 0 1280.000000 640.000000"
 preserveAspectRatio="xMidYMid meet">
<g transform="translate(0.000000,640.000000) scale(0.100000,-0.100000)"
fill="#000000" stroke="none">
<path d="M485 6016 c-214 -35 -396 -65 -404 -67 -7 -3 22 -16 65 -29 508 -156
1194 -674 2188 -1651 271 -267 508 -510 1347 -1389 406 -425 548 -567 689
-691 430 -376 990 -669 1598 -833 328 -89 710 -146 977 -146 145 0 155 -8 90
-66 -114 -102 -326 -228 -530 -314 -209 -89 -588 -202 -820 -246 -49 -9 -94
-20 -98 -24 -11 -10 83 -71 185 -120 168 -82 345 -120 555 -120 195 0 370 31
578 103 225 78 363 149 611 313 94 63 211 132 260 155 499 230 1438 489 1776
489 32 0 58 4 58 9 0 18 -55 75 -100 103 -54 35 -168 72 -270 88 -63 10 -96 9
-199 -4 -219 -28 -446 -17 -620 31 -35 10 -66 23 -68 30 -3 7 18 16 54 23 82
17 230 74 353 135 427 215 921 612 1535 1237 639 648 1292 1451 1451 1783 86
181 250 381 604 736 129 130 277 275 329 323 52 47 92 88 90 91 -13 13 -364
35 -559 35 -360 0 -613 -39 -885 -137 -304 -109 -534 -259 -785 -512 -379
-381 -668 -875 -1102 -1881 -240 -557 -440 -908 -686 -1200 -247 -294 -534
-490 -798 -545 -95 -19 -391 -20 -535 0 -495 65 -971 310 -1479 761 -283 250
-470 467 -716 833 -565 835 -959 1336 -1389 1767 -338 338 -596 534 -905 688
-458 227 -916 308 -1740 305 l-315 -1 -390 -62z"/>
</g>
</svg>
